{  "asset": {    "version": "2.0",    "generator": "THREE.GLTFExporter r167"  },  "scenes": [    {      "name": "AuxScene",      "nodes": [        1      ]    }  ],  "scene": 0,  "nodes": [    {      "mesh": 0    },    {      "children": [        0      ]    }  ],  "bufferViews": [    {      "buffer": 0,      "byteOffset": 0,      "byteLength": 146016,      "target": 34962,      "byteStride": 12    },    {      "buffer": 0,      "byteOffset": 146016,      "byteLength": 146016,      "target": 34962,      "byteStride": 12    },    {      "buffer": 0,      "byteOffset": 292032,      "byteLength": 97344,      "target": 34962,      "byteStride": 8    },    {      "buffer": 0,      "byteOffset": 389376,      "byteLength": 7368,      "target": 34963    },    {      "buffer": 0,      "byteOffset": 396744,      "byteLength": 5132,      "target": 34963    },    {      "buffer": 0,      "byteOffset": 401876,      "byteLength": 10844,      "target": 34963    },    {      "buffer": 0,      "byteOffset": 412720,      "byteLength": 996,      "target": 34963    }  ],  "buffers": [    {      "byteLength": 413716,      "uri": "data:application/octet-stream;base64,"    }  ],  "accessors": [    {      "bufferView": 0,      "componentType": 5126,      "count": 12168,      "max": [        57.46271896362305,        59.41745376586914,        59.217559814453125      ],      "min": [        -57.46271896362305,        -59.41745376586914,        -59.217559814453125      ],      "type": "VEC3"    },    {      "bufferView": 1,      "componentType": 5126,      "count": 12168,      "max": [        0.9971618056297302,        0.9970091581344604,        0.999664306640625      ],      "min": [        -0.999481201171875,        -0.9986266493797302,        -0.9989928603172302      ],      "type": "VEC3"    },    {      "bufferView": 2,      "componentType": 5126,      "count": 12168,      "max": [        1,        0.9870601296424866      ],      "min": [        0,        0.007568590342998505      ],      "type": "VEC2"    },    {      "bufferView": 3,      "componentType": 5123,      "count": 3684,      "max": [        3683      ],      "min": [        0      ],      "type": "SCALAR"    },    {      "bufferView": 4,      "componentType": 5123,      "count": 2565,      "max": [        6248      ],      "min": [        3684      ],      "type": "SCALAR"    },    {      "bufferView": 5,      "componentType": 5123,      "count": 5421,      "max": [        11669      ],      "min": [        6249      ],      "type": "SCALAR"    },    {      "bufferView": 6,      "componentType": 5123,      "count": 498,      "max": [        12167      ],      "min": [        11670      ],      "type": "SCALAR"    }  ],  "materials": [    {      "pbrMetallicRoughness": {        "baseColorFactor": [          0.00048142414857599996,          0.11800092178629158,          0.423842474484441,          1        ],        "metallicFactor": 0.5,        "roughnessFactor": 0.5      },      "name": "mat0"    },    {      "pbrMetallicRoughness": {        "baseColorFactor": [          0.0031410507942980503,          0.6317899088825027,          0.012773397765130123,          1        ],        "metallicFactor": 0.5,        "roughnessFactor": 0.5      },      "name": "mat1"    },    {      "pbrMetallicRoughness": {        "baseColorFactor": [          0.0045786144697125076,          0.047840064704399665,          0.010078785601878883,          1        ],        "metallicFactor": 0.5,        "roughnessFactor": 0.5      },      "name": "mat2"    },    {      "pbrMetallicRoughness": {        "baseColorFactor": [          0.37162416437266416,          0.5368576142442646,          0.6132087013394144,          1        ],        "metallicFactor": 0.5,        "roughnessFactor": 0.5      },      "name": "mat4"    }  ],  "meshes": [    {      "primitives": [        {          "mode": 4,          "attributes": {            "POSITION": 0,            "NORMAL": 1,            "TEXCOORD_0": 2          },          "indices": 3,          "material": 0        },        {          "mode": 4,          "attributes": {            "POSITION": 0,            "NORMAL": 1,            "TEXCOORD_0": 2          },          "indices": 4,          "material": 1        },        {          "mode": 4,          "attributes": {            "POSITION": 0,            "NORMAL": 1,            "TEXCOORD_0": 2          },          "indices": 5,          "material": 2        },        {          "mode": 4,          "attributes": {            "POSITION": 0,            "NORMAL": 1,            "TEXCOORD_0": 2          },          "indices": 6,          "material": 3        }      ]    }  ]}